<mxfile host="app.diagrams.net" agent="Mozilla/5.0 (Windows NT 10.0; Win64; x64) AppleWebKit/537.36 (KHTML, like Gecko) Chrome/131.0.0.0 Safari/537.36" version="24.9.1">
  <diagram name="Страница — 1" id="qDMTI-n_iG57RKX9aq6A">
    <mxGraphModel dx="2607" dy="2587" grid="1" gridSize="10" guides="1" tooltips="1" connect="1" arrows="1" fold="1" page="1" pageScale="1" pageWidth="827" pageHeight="1169" math="0" shadow="0">
      <root>
        <mxCell id="0" />
        <mxCell id="1" parent="0" />
        <mxCell id="ur3z7kVx7yNwOQqHw3qb-2" value="&amp;nbsp;просмотр каталога" style="whiteSpace=wrap;html=1;aspect=fixed;" vertex="1" parent="1">
          <mxGeometry x="60" y="130" width="160" height="160" as="geometry" />
        </mxCell>
        <mxCell id="ur3z7kVx7yNwOQqHw3qb-3" value="Регистрация&amp;nbsp;" style="whiteSpace=wrap;html=1;aspect=fixed;" vertex="1" parent="1">
          <mxGeometry x="500" y="130" width="160" height="160" as="geometry" />
        </mxCell>
        <mxCell id="ur3z7kVx7yNwOQqHw3qb-14" style="edgeStyle=orthogonalEdgeStyle;rounded=0;orthogonalLoop=1;jettySize=auto;html=1;exitX=1;exitY=0.5;exitDx=0;exitDy=0;" edge="1" parent="1" source="ur3z7kVx7yNwOQqHw3qb-4" target="ur3z7kVx7yNwOQqHw3qb-5">
          <mxGeometry relative="1" as="geometry" />
        </mxCell>
        <mxCell id="ur3z7kVx7yNwOQqHw3qb-16" style="edgeStyle=orthogonalEdgeStyle;rounded=0;orthogonalLoop=1;jettySize=auto;html=1;exitX=0.5;exitY=0;exitDx=0;exitDy=0;entryX=0.5;entryY=1;entryDx=0;entryDy=0;" edge="1" parent="1" source="ur3z7kVx7yNwOQqHw3qb-4" target="ur3z7kVx7yNwOQqHw3qb-2">
          <mxGeometry relative="1" as="geometry" />
        </mxCell>
        <mxCell id="ur3z7kVx7yNwOQqHw3qb-4" value="поиск товаров&amp;nbsp;&lt;span style=&quot;color: rgba(0, 0, 0, 0); font-family: monospace; font-size: 0px; text-align: start; text-wrap-mode: nowrap;&quot;&gt;%3CmxGraphModel%3E%3Croot%3E%3CmxCell%20id%3D%220%22%2F%3E%3CmxCell%20id%3D%221%22%20parent%3D%220%22%2F%3E%3CmxCell%20id%3D%222%22%20value%3D%22%26amp%3Bnbsp%3B%D0%BF%D1%80%D0%BE%D1%81%D0%BC%D0%BE%D1%82%D1%80%20%D0%BA%D0%B0%D1%82%D0%B0%D0%BB%D0%BE%D0%B3%D0%B0%22%20style%3D%22whiteSpace%3Dwrap%3Bhtml%3D1%3Baspect%3Dfixed%3B%22%20vertex%3D%221%22%20parent%3D%221%22%3E%3CmxGeometry%20x%3D%2260%22%20y%3D%22130%22%20width%3D%22160%22%20height%3D%22160%22%20as%3D%22geometry%22%2F%3E%3C%2FmxCell%3E%3C%2Froot%3E%3C%2FmxGraphModel%3E&lt;/span&gt;" style="whiteSpace=wrap;html=1;aspect=fixed;" vertex="1" parent="1">
          <mxGeometry x="60" y="390" width="160" height="160" as="geometry" />
        </mxCell>
        <mxCell id="ur3z7kVx7yNwOQqHw3qb-15" style="edgeStyle=orthogonalEdgeStyle;rounded=0;orthogonalLoop=1;jettySize=auto;html=1;exitX=0.5;exitY=0;exitDx=0;exitDy=0;entryX=0.5;entryY=1;entryDx=0;entryDy=0;" edge="1" parent="1" source="ur3z7kVx7yNwOQqHw3qb-5" target="ur3z7kVx7yNwOQqHw3qb-3">
          <mxGeometry relative="1" as="geometry" />
        </mxCell>
        <mxCell id="ur3z7kVx7yNwOQqHw3qb-5" value="Фильтрация" style="whiteSpace=wrap;html=1;aspect=fixed;" vertex="1" parent="1">
          <mxGeometry x="500" y="390" width="160" height="160" as="geometry" />
        </mxCell>
        <mxCell id="ur3z7kVx7yNwOQqHw3qb-13" style="edgeStyle=orthogonalEdgeStyle;rounded=0;orthogonalLoop=1;jettySize=auto;html=1;exitX=0.5;exitY=0;exitDx=0;exitDy=0;entryX=0.5;entryY=1;entryDx=0;entryDy=0;" edge="1" parent="1" source="ur3z7kVx7yNwOQqHw3qb-6" target="ur3z7kVx7yNwOQqHw3qb-4">
          <mxGeometry relative="1" as="geometry" />
        </mxCell>
        <mxCell id="ur3z7kVx7yNwOQqHw3qb-6" value="оформление заказа" style="whiteSpace=wrap;html=1;aspect=fixed;" vertex="1" parent="1">
          <mxGeometry x="60" y="670" width="160" height="160" as="geometry" />
        </mxCell>
        <mxCell id="ur3z7kVx7yNwOQqHw3qb-7" value="проверка наличия товара" style="whiteSpace=wrap;html=1;aspect=fixed;" vertex="1" parent="1">
          <mxGeometry x="500" y="660" width="160" height="160" as="geometry" />
        </mxCell>
        <mxCell id="ur3z7kVx7yNwOQqHw3qb-11" style="edgeStyle=orthogonalEdgeStyle;rounded=0;orthogonalLoop=1;jettySize=auto;html=1;exitX=0.5;exitY=0;exitDx=0;exitDy=0;" edge="1" parent="1" source="ur3z7kVx7yNwOQqHw3qb-8" target="ur3z7kVx7yNwOQqHw3qb-6">
          <mxGeometry relative="1" as="geometry" />
        </mxCell>
        <mxCell id="ur3z7kVx7yNwOQqHw3qb-30" style="edgeStyle=orthogonalEdgeStyle;rounded=0;orthogonalLoop=1;jettySize=auto;html=1;exitX=1;exitY=0.5;exitDx=0;exitDy=0;entryX=0;entryY=0.5;entryDx=0;entryDy=0;" edge="1" parent="1" source="ur3z7kVx7yNwOQqHw3qb-8" target="ur3z7kVx7yNwOQqHw3qb-27">
          <mxGeometry relative="1" as="geometry" />
        </mxCell>
        <mxCell id="ur3z7kVx7yNwOQqHw3qb-8" value="оплата заказа" style="whiteSpace=wrap;html=1;aspect=fixed;" vertex="1" parent="1">
          <mxGeometry x="60" y="910" width="160" height="160" as="geometry" />
        </mxCell>
        <mxCell id="ur3z7kVx7yNwOQqHw3qb-10" style="edgeStyle=orthogonalEdgeStyle;rounded=0;orthogonalLoop=1;jettySize=auto;html=1;exitX=0.5;exitY=0;exitDx=0;exitDy=0;entryX=0.5;entryY=1;entryDx=0;entryDy=0;" edge="1" parent="1" source="ur3z7kVx7yNwOQqHw3qb-9" target="ur3z7kVx7yNwOQqHw3qb-8">
          <mxGeometry relative="1" as="geometry" />
        </mxCell>
        <mxCell id="ur3z7kVx7yNwOQqHw3qb-9" value="клиент&lt;div&gt;&lt;br&gt;&lt;/div&gt;" style="whiteSpace=wrap;html=1;aspect=fixed;" vertex="1" parent="1">
          <mxGeometry x="60" y="1180" width="160" height="160" as="geometry" />
        </mxCell>
        <mxCell id="ur3z7kVx7yNwOQqHw3qb-12" style="edgeStyle=orthogonalEdgeStyle;rounded=0;orthogonalLoop=1;jettySize=auto;html=1;exitX=1;exitY=0.5;exitDx=0;exitDy=0;entryX=0.013;entryY=0.556;entryDx=0;entryDy=0;entryPerimeter=0;" edge="1" parent="1" source="ur3z7kVx7yNwOQqHw3qb-6" target="ur3z7kVx7yNwOQqHw3qb-7">
          <mxGeometry relative="1" as="geometry" />
        </mxCell>
        <mxCell id="ur3z7kVx7yNwOQqHw3qb-17" value="Онлайн магазин" style="ellipse;whiteSpace=wrap;html=1;" vertex="1" parent="1">
          <mxGeometry x="630" y="-80" width="120" height="80" as="geometry" />
        </mxCell>
        <mxCell id="ur3z7kVx7yNwOQqHw3qb-23" style="edgeStyle=orthogonalEdgeStyle;rounded=0;orthogonalLoop=1;jettySize=auto;html=1;exitX=0.5;exitY=0;exitDx=0;exitDy=0;entryX=0.5;entryY=1;entryDx=0;entryDy=0;" edge="1" parent="1" source="ur3z7kVx7yNwOQqHw3qb-18" target="ur3z7kVx7yNwOQqHw3qb-19">
          <mxGeometry relative="1" as="geometry" />
        </mxCell>
        <mxCell id="ur3z7kVx7yNwOQqHw3qb-18" value="&lt;div&gt;админ&lt;/div&gt;" style="whiteSpace=wrap;html=1;aspect=fixed;" vertex="1" parent="1">
          <mxGeometry x="940" y="1160" width="160" height="160" as="geometry" />
        </mxCell>
        <mxCell id="ur3z7kVx7yNwOQqHw3qb-24" style="edgeStyle=orthogonalEdgeStyle;rounded=0;orthogonalLoop=1;jettySize=auto;html=1;exitX=0.5;exitY=0;exitDx=0;exitDy=0;entryX=0.5;entryY=1;entryDx=0;entryDy=0;" edge="1" parent="1" source="ur3z7kVx7yNwOQqHw3qb-19" target="ur3z7kVx7yNwOQqHw3qb-21">
          <mxGeometry relative="1" as="geometry" />
        </mxCell>
        <mxCell id="ur3z7kVx7yNwOQqHw3qb-19" value="Просмотр статистики" style="whiteSpace=wrap;html=1;aspect=fixed;" vertex="1" parent="1">
          <mxGeometry x="940" y="900" width="160" height="160" as="geometry" />
        </mxCell>
        <mxCell id="ur3z7kVx7yNwOQqHw3qb-26" style="edgeStyle=orthogonalEdgeStyle;rounded=0;orthogonalLoop=1;jettySize=auto;html=1;exitX=0.5;exitY=0;exitDx=0;exitDy=0;entryX=0.5;entryY=1;entryDx=0;entryDy=0;" edge="1" parent="1" source="ur3z7kVx7yNwOQqHw3qb-20" target="ur3z7kVx7yNwOQqHw3qb-22">
          <mxGeometry relative="1" as="geometry" />
        </mxCell>
        <mxCell id="ur3z7kVx7yNwOQqHw3qb-20" value="Управление ценами" style="whiteSpace=wrap;html=1;aspect=fixed;" vertex="1" parent="1">
          <mxGeometry x="940" y="400" width="160" height="160" as="geometry" />
        </mxCell>
        <mxCell id="ur3z7kVx7yNwOQqHw3qb-32" style="edgeStyle=orthogonalEdgeStyle;rounded=0;orthogonalLoop=1;jettySize=auto;html=1;exitX=0.5;exitY=0;exitDx=0;exitDy=0;entryX=0.5;entryY=1;entryDx=0;entryDy=0;" edge="1" parent="1" source="ur3z7kVx7yNwOQqHw3qb-21" target="ur3z7kVx7yNwOQqHw3qb-20">
          <mxGeometry relative="1" as="geometry" />
        </mxCell>
        <mxCell id="ur3z7kVx7yNwOQqHw3qb-21" value="Управление заказами" style="whiteSpace=wrap;html=1;aspect=fixed;" vertex="1" parent="1">
          <mxGeometry x="940" y="660" width="160" height="160" as="geometry" />
        </mxCell>
        <mxCell id="ur3z7kVx7yNwOQqHw3qb-22" value="Управление товарами" style="whiteSpace=wrap;html=1;aspect=fixed;" vertex="1" parent="1">
          <mxGeometry x="940" y="130" width="160" height="160" as="geometry" />
        </mxCell>
        <mxCell id="ur3z7kVx7yNwOQqHw3qb-27" value="Обработка платежа" style="whiteSpace=wrap;html=1;aspect=fixed;" vertex="1" parent="1">
          <mxGeometry x="500" y="910" width="160" height="160" as="geometry" />
        </mxCell>
        <mxCell id="ur3z7kVx7yNwOQqHw3qb-31" style="edgeStyle=orthogonalEdgeStyle;rounded=0;orthogonalLoop=1;jettySize=auto;html=1;exitX=0.5;exitY=0;exitDx=0;exitDy=0;entryX=0.5;entryY=1;entryDx=0;entryDy=0;" edge="1" parent="1" source="ur3z7kVx7yNwOQqHw3qb-28" target="ur3z7kVx7yNwOQqHw3qb-27">
          <mxGeometry relative="1" as="geometry" />
        </mxCell>
        <mxCell id="ur3z7kVx7yNwOQqHw3qb-28" value="Платежная система" style="whiteSpace=wrap;html=1;aspect=fixed;" vertex="1" parent="1">
          <mxGeometry x="500" y="1169" width="160" height="160" as="geometry" />
        </mxCell>
      </root>
    </mxGraphModel>
  </diagram>
</mxfile>
